ply
format ascii 1.0
element vertex 12
property float x
property float y
property float z
element face 10
property list uchar int vertex_indices
end_header
51.6667 21.477 22.6174
51.6667 21.477 41.3826
22.1667 21.477 41.3826
22.1667 21.477 22.6174
51.6667 41.9528 22.6174
51.6667 41.9528 41.3826
22.1667 41.9528 41.3826
22.1667 41.9528 22.6174
22.1667 29.1211 35.4491
22.1667 36.0192 35.4491
22.1667 36.0192 28.5509
22.1667 29.1211 28.5509
4 0 1 2 3
4 4 7 6 5
4 0 4 5 1
4 1 5 6 2
4 4 0 3 7
4 2 6 9 8
4 6 7 10 9
4 7 3 11 10
4 3 2 8 11
4 8 9 10 11
