ply
format ascii 1.0
element vertex 49
property float x
property float y
property float z
element face 43
property list uchar int vertex_indices
end_header
33.7632 24.0444 18.2112
38.5733 24.0444 33.2236
18.7508 21.1498 33.2236
18.7508 21.1498 18.2112
33.7632 39.0569 18.2112
38.5733 42.506 33.2236
18.7508 39.0569 33.2236
18.7508 39.0569 18.2112
38.5733 24.0444 35.1393
38.5733 42.506 35.1393
18.7508 39.0569 34.4606
18.7508 24.0444 34.4606
24.3848 41.6458 42.3202
26.257 42.506 33.2236
26.257 39.0569 18.2112
26.257 21.1498 18.2112
26.257 21.1498 33.2236
26.257 24.0444 38.1286
48.2508 24.0444 33.2236
45.0041 39.0569 33.2236
45.0041 39.0569 35.1393
45.0041 24.0444 35.1393
21.4102 40.2789 35.1393
21.4102 24.0444 38.1286
33.7632 31.5507 18.2112
38.5733 33.2752 33.2236
48.2508 31.5507 33.2236
45.0041 31.5507 35.1393
38.5733 33.2752 35.1393
26.257 33.2752 38.1286
21.4102 32.1617 38.1286
18.7508 31.5507 34.4606
18.7508 31.5507 33.2236
18.7508 31.5507 18.2112
26.257 31.5507 18.2112
26.257 42.506 33.8115
38.5733 42.506 34.1815
45.0041 39.0569 34.1815
48.2508 31.5507 34.1815
48.2508 24.0444 33.227
38.5733 24.0444 33.227
26.257 24.0444 34.1815
48.2508 31.5241 34.1815
45.0041 24.0444 35.1359
26.3005 24.0444 34.1815
38.5733 24.0444 35.1359
26.257 38.9404 42.3202
31.0144 42.506 42.3202
31.0144 42.506 34.1815
6 10 22 12 35 13 6
4 6 13 14 7
4 13 5 4 14
4 15 0 1 16
4 15 16 2 3
6 2 16 41 17 23 11
4 0 24 25 1
4 24 4 5 25
4 1 25 26 18
4 25 5 19 26
4 21 27 28 8
4 27 20 9 28
4 8 28 29 17
5 28 9 47 46 29
4 17 29 30 23
5 29 46 12 22 30
4 23 30 31 11
4 30 22 10 31
4 11 31 32 2
4 31 10 6 32
4 2 32 33 3
4 32 6 7 33
4 3 33 34 15
4 33 7 14 34
4 34 14 4 24
4 34 24 0 15
4 48 47 9 36
5 35 48 36 5 13
4 5 36 37 19
4 36 9 20 37
4 19 37 38 26
4 37 20 27 38
5 26 38 42 39 18
5 38 27 21 43 42
4 18 39 40 1
4 43 21 8 45
5 1 40 44 41 16
5 44 45 8 17 41
3 39 42 43
3 45 44 40
4 45 40 39 43
3 12 46 47
4 48 35 12 47
